<?xml version="1.0" encoding="utf-8" ?><svg xmlns="http://www.w3.org/2000/svg" xmlns:xlink="http://www.w3.org/1999/xlink" width="1024" height="1024" viewBox="0 0 1024 1024"><path fill="#1E7032" d="M418.553 189.237C452.882 188.131 485.529 199.875 512.236 221.307C534.406 202.865 561.787 191.815 590.547 189.701C621.934 187.595 652.907 197.79 676.907 218.124C702.94 240.523 717.042 272.569 719.413 306.495C722.854 355.725 703.994 400.798 672.008 437.493C672.941 439.097 673.738 440.778 674.389 442.516C678.011 451.897 677.764 463.566 673.569 472.715C669.803 481.11 662.808 487.631 654.17 490.801C642.08 495.194 629.567 493.058 618.237 487.683L609.79 492.728C593.839 501.787 577.463 509.112 559.662 513.731C516.001 525.215 469.656 520.471 429.227 500.38C420.754 496.202 413.175 490.801 405.068 486.028C403.075 487.041 401.046 488.034 398.985 488.901C389.582 492.852 377.048 492.552 367.683 488.649C359.12 485.08 353.102 477.77 349.691 469.298C345.163 458.052 346.82 446.788 351.493 435.948C325.513 408.785 309.183 373.834 305.019 336.478C300.899 299.981 308.933 262.937 332.262 233.924C354.374 206.424 383.912 192.885 418.553 189.237ZM601.311 381.016L607.074 384.003C623.821 364.591 638.567 340.907 636.723 314.241C635.865 301.825 631.568 290.066 621.957 281.77C613.093 274.119 602.371 271.396 590.866 272.19C578.099 274.648 567.615 281.125 557.674 289.318C563.349 307.483 565.173 326.952 561.658 345.767C560.486 352.044 557.934 358.302 557.392 364.647C572.157 370.103 586.921 374.428 601.311 381.016ZM428.599 375.513C439.886 370.585 451.294 365.936 462.812 361.571C456.052 339.094 458.442 313.364 468.805 292.29C459.047 282.024 447.051 272.659 432.269 272.35C430.016 272.302 427.72 272.377 425.472 272.548C412.864 275.181 403.217 280.172 395.994 291.21C387.124 304.765 387.333 321.373 390.641 336.676C394.323 353.703 403.608 369.404 415.613 381.931C419.922 379.771 424.208 377.501 428.599 375.513ZM479.342 434.353C490.206 436.891 500.925 439.09 512.15 439.029C521.027 438.294 529.724 437.015 538.507 435.567C531.952 432.503 525.348 429.492 518.939 426.132C514.611 423.863 510.409 421.185 506.028 419.057C497.29 424.274 487.779 428.742 479.342 434.353Z"/><path fill="#FDCA37" d="M419.123 206.204C429.304 204.752 441.004 206.842 450.882 209.235C484.171 217.425 512.804 238.584 530.405 268.001C547.732 296.715 549.861 326.502 541.835 358.547C503.652 341.515 500.285 293.042 468.868 269.101C455.271 258.574 437.993 253.997 420.967 256.411C404.916 258.706 392.177 268.197 382.561 280.851C375.565 290.927 372.049 303.599 371.556 315.762C370.436 343.342 381.823 370.062 400.328 390.125C385.922 398.843 370.973 408.527 360.469 421.894C338.42 394.983 324.696 366.406 321.426 331.481C318.436 299.544 325.988 267.107 346.86 242.185C365.393 220.056 390.72 208.824 419.123 206.204Z"/><path fill="#1E7032" d="M345.178 330.781C349.264 329.757 353.424 332.164 354.575 336.216C355.725 340.269 353.448 344.502 349.434 345.777C346.723 346.638 343.759 345.956 341.699 343.996C339.638 342.036 338.808 339.11 339.532 336.36C340.256 333.61 342.419 331.472 345.178 330.781Z"/><path fill="#1E7032" d="M353.659 271.272C356.361 270.437 359.303 271.141 361.335 273.108C363.367 275.075 364.165 277.993 363.419 280.72C362.672 283.448 360.499 285.552 357.748 286.21C353.682 287.183 349.577 284.753 348.473 280.72C347.369 276.688 349.664 272.506 353.659 271.272Z"/><path fill="#1E7032" d="M386.796 237.83C390.885 236.879 394.981 239.384 395.997 243.457C397.014 247.531 394.575 251.666 390.519 252.748C387.836 253.464 384.976 252.677 383.036 250.691C381.097 248.705 380.378 245.827 381.157 243.162C381.936 240.497 384.091 238.459 386.796 237.83Z"/><path fill="#FDCA37" d="M591.765 206.205C591.94 206.178 592.113 206.143 592.289 206.124C617.98 203.399 647.339 214.367 666.806 230.805C688.338 248.986 700.444 277.378 702.689 305.1C706.207 348.557 690.543 389.553 662.684 422.381C656.92 416.513 651.08 410.713 644.562 405.672C641.569 403.357 624.315 393.279 623.665 391.01L624.395 389.899C637.589 373.112 648.689 354.86 652.248 333.463C655.42 314.392 653.078 293.908 641.442 277.957C632.747 265.864 619.484 257.855 604.733 255.79C584.789 252.904 567.782 260.723 552.137 272.431C544.347 257.663 535.585 244.988 524.296 232.63C545.155 218.197 566.188 208.448 591.765 206.205Z"/><path fill="#FDCA37" d="M479.503 309.41C483.23 313.464 485.713 319.507 488.342 324.32C495.754 337.887 503.984 352.218 515.842 362.38C529.642 374.207 548.015 379.289 564.869 385.167C592.674 394.864 622.679 406.674 644.208 427.43C652.273 435.206 660.052 445.779 660.018 457.508C659.999 463.961 657.195 468.502 652.76 472.882C652.529 473.024 652.3 473.171 652.066 473.308C646.553 476.523 639.495 477.507 633.357 475.646C622.306 472.295 614.637 462.08 606.491 454.56C601.945 450.399 597.058 446.627 591.882 443.282C565.423 426.438 533.839 418.83 508.645 399.876C498.411 392.24 490.102 382.319 484.379 370.904C474.399 351.472 472.804 330.17 479.503 309.41Z"/><path fill="#FDCA37" d="M460.671 445.507C496.739 459.079 527.017 457.575 563.379 447.036C579.263 454.244 592.727 463.766 605.302 475.838C592.013 483.677 578.652 489.83 564.124 495.002C558.739 496.902 553.089 498.266 547.495 499.402C502.885 508.448 456.506 499.598 418.361 474.761C431.906 463.627 445.43 454.209 460.671 445.507Z"/><path fill="#FDCA37" d="M467.431 377.466C468.618 377.803 468.843 378.067 469.624 379.079C472.848 383.26 475.388 388.118 478.385 392.487C482.302 398.198 486.926 403.289 491.569 408.404C470.14 420.629 447.663 431.79 427.46 446.005C415.206 454.627 401.772 471.371 388.169 474.676C383.915 475.244 379.203 475.044 375.165 473.529C370.516 471.785 367.137 468.198 365.264 463.636C362.592 457.128 363.661 450.303 366.252 443.98C379.186 412.422 437.567 389.991 467.431 377.466Z"/><path fill="#1E7032" d="M456.372 565.714C466.398 564.403 480.408 566.693 489.748 570.577C499.35 574.57 506.774 581.587 510.681 591.289C512.713 596.337 513.542 601.664 513.924 607.065C514.369 613.359 514.096 619.785 514.054 626.092L513.86 659.393C513.87 668.536 515.054 677.618 515.08 686.721C515.086 688.749 514.95 690.541 514.137 692.413C512.448 693.955 510.855 694.485 508.598 694.818C504.044 695.491 487.61 695.902 484.474 692.934C481.379 690.004 482.032 683.748 481.966 679.891C477.863 685.467 474.033 689.835 467.743 692.917C454.923 699.197 437.419 699.402 424.057 694.724C413.556 691.048 406.263 683.85 401.473 673.952C400.548 671.305 399.753 668.729 399.286 665.957C397.767 656.946 399.208 647.292 404.655 639.785C417.824 621.637 442.927 621.002 463.007 617.526C468.689 616.543 476.846 614.877 480.189 609.707C481.307 607.978 481.5 606.21 480.948 604.245C479.86 600.371 476.664 596.507 473.098 594.668C465.707 590.856 454.912 591.214 447.141 593.62C438.832 596.192 439.092 602.631 435.523 609.255C435.43 609.429 435.332 609.6 435.237 609.773L434.602 609.935C428.109 611.626 412.314 612.554 406.359 609.684C405.562 608.798 405.263 608.088 405.098 606.928C403.983 599.081 408.448 589.424 413.286 583.469C423.848 570.472 440.622 567.245 456.372 565.714ZM437.774 668.493C444.065 672.429 451.565 672.975 458.682 671.365C465.921 669.728 472.474 665.607 476.505 659.285C479.241 654.994 482.427 642.775 481.353 637.975C481.28 637.648 481.17 637.292 480.924 637.066L480.334 637.363C467.442 643.707 439.318 639.892 434.301 653.832C433.066 657.265 433.23 661.564 434.932 664.811C435.662 666.204 436.716 667.345 437.774 668.493Z"/><path fill="#1E7032" d="M678.825 520.739C682.78 520.612 697.217 519.615 699.784 522.818C701.071 524.425 701.196 528.352 701.329 530.409C702.003 540.842 701.503 551.514 701.472 561.98L701.519 614.783C709.005 606.423 733.176 574.713 741.372 570.677C746.135 568.332 767.946 568.608 772.727 570.757C773.903 571.285 774.218 571.688 774.587 572.883C774.138 575.105 773.219 576.73 771.93 578.587C768.65 583.309 764.264 587.627 760.454 591.936L738.908 616.23C750.462 637.86 764.394 662.311 777.968 682.746C779.285 684.903 781.234 687.81 780.946 690.46C780.8 691.799 780.114 692.634 779.044 693.385C775.198 696.087 752.562 695.292 747.737 694.008C745.576 693.433 744.222 691.791 742.919 690.068C739.022 684.918 736.02 678.614 732.814 672.996C726.794 662.369 720.7 651.784 714.532 641.242C710.26 646.62 705.889 651.919 701.42 657.135C701.535 664.444 703.371 686.589 699.629 691.892C698.639 693.295 697.138 694.363 695.425 694.62C690.078 695.421 672.538 696.096 668.472 692.49C667.096 691.269 666.854 689.173 666.637 687.455C665.187 675.975 665.815 663.796 666.016 652.24C666.19 642.235 666.079 632.214 666.075 622.207L665.929 560.377C665.916 550.242 665.568 540.049 666.038 529.92C666.126 528.016 666.104 524.318 667.474 522.943C669.926 520.483 675.612 520.899 678.825 520.739Z"/><path fill="#1E7032" d="M798.564 569.237C803.344 569.087 811.236 568.572 815.402 570.869C817.535 572.045 818.632 574.845 819.569 577.004C823.505 586.07 825.953 595.846 829.004 605.241C834.416 621.904 839.933 638.457 844.807 655.293C850.487 636.427 855.447 617.354 861.17 598.502C863.889 589.543 866.305 578.792 871.194 570.811C872.858 570.396 874.548 570.089 876.252 569.892C882.537 569.124 898.563 567.695 903.555 571.622C904.65 574.024 902.841 579.639 902.133 582.182C898.714 594.468 893.64 606.642 889.37 618.669C883.173 636.121 877.356 653.722 870.959 671.099C870.827 671.644 870.676 672.175 870.499 672.707C865.237 688.563 856.984 715.146 846.349 727.914C843.504 731.329 840.08 733.958 836.09 735.905C828.12 739.794 807.355 743.909 799.348 740.912C797.117 740.077 795.515 738.477 794.654 736.26C793.433 733.121 793.164 719.963 795.017 717.027C797.383 713.278 807.222 714.052 811.434 713.217C816.929 712.127 821.7 709.492 824.73 704.604C826.729 701.378 827.4 697.477 826.835 693.745C825.41 684.336 820.511 674.923 817.146 666.043L795.761 609.52C791.769 599.041 786.723 588.112 783.967 577.262C783.387 574.981 783.001 573.219 784.238 571.132C787.997 568.593 794.149 569.359 798.564 569.237Z"/><path fill="#1E7032" d="M337.02 566.663C347.847 565.529 361.157 569.275 369.853 575.788C379.404 582.942 384.691 594.102 386.359 605.724C388.772 622.528 387.044 640.231 386.999 657.144C386.973 666.962 388.072 678.03 386.992 687.661C386.799 689.382 386.419 691.895 385.125 693.187C382.277 696.032 365.729 695.031 361.275 694.898C359.001 694.831 355.669 694.724 354.226 692.691C353.168 691.201 352.885 689.153 352.742 687.376C352.369 682.745 352.848 677.907 352.927 673.254C353.018 663.638 353.059 654.02 353.05 644.403C353.062 634.644 353.866 624.06 351.522 614.538C350.472 610.273 348.565 606.237 345.458 603.08C341.132 598.683 335.305 597.023 329.284 596.907C322.539 596.777 316.186 599.102 311.344 603.828C311.194 603.974 311.048 604.123 310.9 604.27C301.787 614.894 302.87 630.577 302.9 643.618C302.908 652.463 302.962 661.307 303.06 670.152C303.129 676.094 303.722 682.646 302.721 688.51C302.364 690.602 301.835 692.139 300.463 693.76C295.881 695.666 277.52 695.941 272.633 694.378C271.148 693.903 270.315 692.867 269.75 691.456C267.647 686.2 268.251 591.69 269.188 578.161C269.334 576.06 269.469 573.92 270.368 571.99C275.589 567.88 289.601 568.884 295.836 569.624C297.868 569.866 299.976 570.037 301.274 571.801C304.011 575.518 302.767 582.318 302.224 586.592C303.523 584.378 304.948 582.133 306.531 580.112C314.334 570.146 325.102 568.009 337.02 566.663Z"/><path fill="#1E7032" d="M194.306 566.205C209.586 564.866 228.584 569.513 240.604 579.334C246.251 583.947 252.158 592.222 252.646 599.696C252.757 601.404 252.505 603.416 251.2 604.657C247.575 608.104 228.448 606.279 223.053 605.944C220.821 603.635 219.397 600.595 217.312 598.133C213.628 593.784 207.716 592.41 202.254 591.939C195.751 591.379 187.201 591.817 182.14 596.403C180.22 598.143 179.076 600.473 179.11 603.088C179.156 606.71 181.324 610.277 184.373 612.141C188.904 614.91 195.07 615.903 200.214 616.948C215.511 620.057 236.876 622.14 248.202 633.783C254.564 640.323 256.889 649.903 256.63 658.814C256.349 668.477 251.798 677.294 244.758 683.813C232.242 695.402 215.342 697.81 198.893 697.182C187.907 696.4 176.472 695.346 166.329 690.755C156.431 686.275 149.606 679.395 145.832 669.194C144.393 665.305 143.034 661.41 144.877 657.432C149.201 654.155 161.869 654.978 167.38 655.193C180.666 655.712 175.863 659.215 183.241 666.694C188.074 671.593 195.442 672.923 202.071 672.981C208.324 673.035 217.2 671.484 221.669 666.846C223.625 664.815 225.091 661.49 224.89 658.638C224.627 654.913 221.596 652.259 218.411 650.774C213.865 648.654 208.364 648.07 203.462 647.151C188.356 644.32 169.286 641.698 157.093 631.715C150.436 626.264 147.061 618.92 146.235 610.448C145.274 600.593 147.991 591.117 154.331 583.465C164.316 571.413 179.381 567.624 194.306 566.205Z"/><path fill="#1E7032" d="M591.173 566.148C592.117 566.126 593.049 566.128 593.993 566.163C611.876 566.819 626.848 571.615 639.273 585.085C644.937 591.226 652.485 602.37 651.656 611.054C651.537 612.291 651.265 613.254 650.23 614.016C646.421 616.819 625.591 616.585 620.866 615.237C616.447 613.976 614.927 607.863 612.685 604.289C610.036 600.065 603.37 597.213 598.652 596.291C591.765 594.946 584.583 596.814 578.813 600.686C571.007 605.925 566.205 614.866 564.544 623.981C562.562 634.854 564.081 647.493 570.595 656.681C574.876 662.719 581.234 666.57 588.529 667.747C598.744 669.395 607.466 666.778 613.663 658.158C615.746 655.26 617.536 652.089 620.485 649.987C620.631 649.883 620.78 649.784 620.927 649.682C625.035 649.296 629.251 649.499 633.375 649.52C637.487 649.481 647.01 648.543 650.371 650.896C651.445 651.648 651.819 652.46 651.969 653.73C652.736 660.249 645.613 671.226 641.721 676.143C631.831 688.639 617.369 695.131 601.761 696.829C584.681 698.688 565.952 695.396 552.342 684.391C538.675 673.34 531.621 657.451 529.885 640.194C528.046 621.909 532.411 602.846 544.207 588.466C556.545 573.426 572.448 568.097 591.173 566.148Z"/></svg>