<?xml version="1.0" encoding="utf-8" ?><svg xmlns="http://www.w3.org/2000/svg" xmlns:xlink="http://www.w3.org/1999/xlink" width="486" height="486" viewBox="0 0 486 486"><path transform="scale(9.72 9.72)" d="M0 2.90017C2.47768 1.67549 7.88709 1.51153 10.5251 2.40407C12.0002 2.90317 12.9891 3.88288 13.6632 5.26692C15.068 8.15124 15.2637 11.9292 16.2036 15.0212L45.1828 15.0398L46.6069 15.5147C46.4337 15.8877 46.0138 16.064 45.6434 16.1948C45.4458 16.2646 45.2408 16.3134 45.0359 16.3562C45.0138 16.4782 44.9409 16.7187 44.9813 16.8302C41.0696 17.2866 36.8426 17.0004 32.8974 16.9957C27.5026 16.9893 22.0296 17.162 16.6443 16.8859C18.116 22.5444 19.7032 28.2714 20.8019 34.0117C24.7885 34.0176 35.4313 33.5343 38.7194 34.1913C38.9918 34.4437 39.259 34.7017 39.5206 34.9652L39.4403 36.0153C33.3771 35.9025 27.3125 36.052 21.2508 35.9623C21.6821 37.2738 22.3163 40.8843 23.5716 41.5149C26.1331 42.8016 37.1407 41.8088 40.7976 42.1007C40.3086 42.9347 40.2995 43.0204 39.3714 43.2626C38.7345 43.4288 38.5695 43.4624 38.0957 43.9595C37.4842 44.57 37.0287 45.114 37.0281 46.0183C37.0277 46.6221 37.2927 47.224 37.7274 47.6458C37.8245 47.7401 37.9313 47.82 38.0467 47.8903L37.1437 49.2807C36.3538 48.8915 35.6697 48.4213 35.3742 47.5489C34.9851 46.3997 35.286 45.1068 35.5409 43.9598C34.1235 43.9368 30.8922 43.5371 29.8451 44.5471C29.0942 47.2643 30.7911 47.603 27.0097 50L24.9916 50C24.3311 49.5782 23.6598 49.1209 23.0895 48.5818C21.2778 46.8692 22.6987 46.0654 22.6396 44.0905C22.6057 42.9549 21.2884 42.0545 20.8103 41.0703C20.4128 40.2519 20.2426 39.2462 20.0261 38.3606L14.7167 16.9378C13.9117 13.6806 13.341 10.2879 12.3386 7.09241C12.0999 6.33131 11.7648 5.32901 11.1723 4.77883C9.74492 3.45326 6.08081 3.98138 4.24283 4.04556C3.58206 4.8436 3.09331 5.59619 2.03474 5.83699C1.20171 5.78412 0.663034 5.37211 0 4.90252L0 2.90017ZM26.8534 47.8135C27.5149 47.5027 27.9574 46.8593 28.0109 46.1303C28.0644 45.4014 27.7206 44.7002 27.1115 44.2961C26.5025 43.892 25.7228 43.8478 25.072 44.1805C24.0886 44.6831 23.6899 45.8814 24.1761 46.873C24.6623 47.8646 25.8538 48.2832 26.8534 47.8135Z"/><path transform="scale(9.72 9.72)" d="M45.1828 15.0398C45.8078 15.0399 46.868 14.9274 47.3991 15.2625C47.6761 15.4372 47.6811 15.5984 47.7777 15.895C47.4666 17.6795 41.1356 35.0275 40.2443 35.6776C40.0189 35.842 39.705 35.9388 39.4403 36.0153L39.5206 34.9652C39.259 34.7017 38.9918 34.4437 38.7194 34.1913L39.2406 33.8529C40.2252 31.5769 45.2526 19.0033 45.3491 17.4428C45.3666 17.16 45.1625 17.0334 44.9813 16.8302C44.9409 16.7187 45.0138 16.4782 45.0359 16.3562C45.2408 16.3134 45.4458 16.2646 45.6434 16.1948C46.0138 16.064 46.4337 15.8877 46.6069 15.5147L45.1828 15.0398Z"/><path transform="scale(9.72 9.72)" d="M40.7976 42.1007C41.5303 42.4276 41.8956 42.5985 42.1987 43.401C42.4949 44.1851 42.711 45.016 42.9414 45.8221C42.6619 47.0869 42.3966 48.3655 41.2321 49.1324C41.1335 49.1973 41.0154 49.2258 40.8989 49.2354C40.8844 49.1889 40.8677 49.1398 40.8429 49.0977C40.4299 48.3936 39.3412 48.321 38.5915 48.1249C39.2412 48.0624 39.8474 47.9385 40.3296 47.4656C40.7392 47.0638 41.0275 46.5939 41.0281 46.007C41.0287 45.4139 40.7298 44.8803 40.3158 44.4719C39.7183 43.8825 38.8783 43.9557 38.0957 43.9595C38.5695 43.4624 38.7345 43.4288 39.3714 43.2626C40.2995 43.0204 40.3086 42.9347 40.7976 42.1007Z"/><path transform="scale(9.72 9.72)" d="M38.0467 47.8903L38.5915 48.1249C39.3412 48.321 40.4299 48.3936 40.8429 49.0977C40.8677 49.1398 40.8844 49.1889 40.8989 49.2354L40.2452 50L37.7575 50L37.1437 49.2807L38.0467 47.8903Z"/></svg>