<?xml version="1.0" encoding="utf-8" ?><svg xmlns="http://www.w3.org/2000/svg" xmlns:xlink="http://www.w3.org/1999/xlink" width="399" height="204" viewBox="0 0 399 204"><path d="M86.7132 36.3578C101.335 35.6441 118.807 39.2064 130.448 48.5044C133.429 50.8852 135.514 53.67 137.834 56.6468C144.114 64.7045 149.699 73.4696 150.825 83.9024C151.715 92.155 149.524 98.955 144.325 105.333C141.346 108.989 137.741 111.11 133.014 111.569C125.357 112.312 118.23 107.177 112.611 102.542C106.585 97.7831 101.289 92.1045 95.288 87.3268C88.9363 82.2704 81.1413 78.6673 73.6731 75.553C69.084 73.6393 64.088 72.4574 59.1632 71.8259C53.8036 71.1388 46.1258 72.881 41.7751 68.9989C40.1909 67.5854 38.7968 65.7181 38.7059 63.5209C38.5423 59.5665 41.9274 54.484 44.4775 51.7004C49.862 45.8229 64.0527 40.2769 71.818 38.4055C76.5557 37.2637 81.8405 36.5649 86.7132 36.3578ZM82.9814 38.1049C70.8146 39.9512 52.0432 43.9844 44.4067 54.3828C43.2738 55.9255 41.2957 58.6735 41.5192 60.6746L41.8071 61.0331C42.3186 60.3199 42.5691 58.7548 43.2124 58.3071C44.5584 59.491 43.3182 62.3491 45.4156 63.7419C47.6492 65.2252 52.4856 65.215 55.1496 65.5472C62.8177 66.5033 77.2552 68.7824 82.4785 74.6304C75.9011 71.5682 70.2373 69.365 63.0861 67.8733C58.9345 67.0073 48.2102 66.3899 45.3302 65.2286C44.2448 64.7909 43.3689 63.6208 42.324 63.0218C42.246 64.3696 43.8555 65.2919 44.0793 66.7209C44.1614 67.2449 44.2528 67.6892 44.7133 67.9871C44.9669 68.1511 45.2458 68.1561 45.5384 68.1679C45.9174 67.9404 46.5104 67.4313 46.9034 67.2973C49.217 66.5085 58.8611 67.8262 61.3695 68.4541C64.0454 69.1239 66.8486 69.6267 69.4665 70.4822C76.5048 72.7823 90.1264 79.2017 95.5563 84.0094C97.487 85.7188 98.8988 87.8615 100.557 89.8121C101.538 90.9665 102.746 92.003 103.835 93.0559C107.328 96.2095 110.909 100.009 114.959 102.371L115.135 102.471C114.045 101.245 112.614 100.001 111.85 98.5514L111.99 98.2532C114.494 98.6901 118.187 103.428 120.538 104.904C124.888 107.636 133.292 108.867 137.759 105.759C138.963 104.921 139.971 103.634 141.378 103.147L141.625 103.328C140.95 105.159 138.098 106.919 136.398 107.704C131.817 109.822 128.005 108.893 123.476 107.357C122.976 107.187 122.142 106.79 121.788 107.228C122.884 108.849 126.69 109.922 128.538 110.282C132.186 110.993 135.902 110.361 138.993 108.27C143.559 105.181 148.216 97.3506 149.222 91.902C150.935 82.6306 146.764 71.1911 141.457 63.575C139.581 60.8842 137.354 58.4634 135.264 55.944C133.539 53.8647 132.113 51.7139 130.051 49.9207C123.818 44.4993 112.924 40.3128 104.846 38.8908C97.7623 37.6437 90.1413 37.6103 82.9814 38.1049ZM72.9446 73.804L73.3898 73.6181C72.6343 72.3443 68.2835 71.1082 66.7873 70.7245C64.0414 70.0204 60.6579 69.1971 57.8394 69.3453L57.3172 69.6416C59.3659 70.4177 61.9846 70.6186 64.1583 71.1602C67.1378 71.9027 70.0025 72.9543 72.9446 73.804ZM92.9721 83.5708C91.5506 81.8282 86.7115 78.8014 84.5233 78.4758C85.6664 79.9608 90.9639 83.2736 92.8581 83.5575C92.8959 83.5632 92.9341 83.5664 92.9721 83.5708Z"/><path d="M112.564 43.2466C115.84 43.009 125.147 49.3094 127.859 51.4554C134.424 56.6503 139.82 63.5412 143.634 70.9713C144.384 72.4324 145.341 74.0622 145.533 75.7109L144.969 75.6317C144.233 75.0614 139.649 66.4649 138.323 64.5444C135.026 59.777 131.078 55.4941 126.595 51.82C123.975 49.6857 120.728 47.9279 117.697 46.4426C116.305 45.7601 114.651 45.1455 113.378 44.266C113.011 44.0124 112.775 43.6307 112.564 43.2466Z"/><path d="M82.5642 39.5641C85.0972 39.3202 88.2125 39.0998 90.6732 39.7443L90.6559 39.9768C87.307 40.8055 83.3904 40.7575 79.9428 41.186C69.1776 42.5241 61.3411 45.1023 51.8626 50.4135C50.4275 51.2077 48.0178 53.9117 46.4473 53.9306L46.5236 53.571C50.5399 48.5206 62.9191 43.6915 69.1554 42.0878C73.5654 40.9537 78.0944 40.3981 82.5642 39.5641Z"/><path d="M71.7769 43.8509L72.3357 43.7903L72.3378 44.1304C71.2328 45.1997 66.4368 45.7785 64.6576 46.5421C58.2117 49.3087 52.7767 52.6088 47.3611 57.0458C47.0557 57.0602 46.9654 56.99 46.6977 56.8545C46.734 56.6094 46.8065 56.4281 46.9616 56.2307C51.4081 50.5723 64.5958 44.722 71.7769 43.8509Z"/><path d="M122.614 50.9765C123.056 50.9657 123.542 50.9581 123.948 51.1593C127.065 52.7078 137.341 64.951 138.535 68.3748C137.054 68.1509 135.991 66.1025 135.104 64.9269C132.976 62.1048 130.808 59.293 128.348 56.7478C126.525 54.8615 124.178 53.0523 122.614 50.9765Z"/><path d="M137.373 101.955L137.833 102.034L137.827 102.379C136.322 103.713 134.844 104.751 132.901 105.344C128.963 106.544 124.428 105.852 120.842 103.925C120.626 103.801 120.402 103.562 120.21 103.396L120.357 103.028C122.028 102.939 124.214 104.063 125.869 104.482C130.301 105.602 133.633 104.19 137.373 101.955Z"/><path d="M110.985 86.9228C111.346 86.9397 111.701 87.0168 112.036 87.1507C113.414 87.7157 118.17 91.6801 118.695 93.0284C118.441 93.0126 118.209 92.9646 117.97 92.8746C115.558 91.9647 112.069 89.2508 110.985 86.9228Z"/><path d="M54.4967 54.0073L54.6828 54.3492C54.0379 55.7359 49.3078 59.5328 47.9494 60.8329L47.546 60.5252C47.5581 60.4299 47.5571 60.4212 47.5821 60.3155C48.1596 57.8744 52.4736 55.2244 54.4967 54.0073Z"/><path d="M65.9823 61.6428C67.6986 61.358 69.672 61.296 71.388 61.5748C72.5663 61.7663 73.2904 61.9812 73.9833 62.9424C73.3259 62.9362 66.8753 62.3957 66.5365 62.1969C66.3682 62.0982 66.1279 61.7884 65.9823 61.6428Z"/><path d="M101.391 61.366C101.481 61.3875 101.523 61.3926 101.604 61.4274C102.196 61.6843 102.435 62.1264 102.67 62.6836C102.636 63.6344 102.596 63.7186 102.009 64.4693C101.319 64.0841 100.741 63.7362 100.425 62.9866C100.574 62.1497 100.828 61.9814 101.391 61.366Z"/><path d="M69.1604 51.0459C69.8167 51.0451 70.771 51.0679 71.253 51.5399C70.7862 52.0421 70.3532 52.0089 69.6909 52.1404C68.8714 52.3308 68.049 52.609 67.2615 52.2022L67.1685 51.8387C67.6218 51.2527 68.4732 51.1881 69.1604 51.0459Z"/><path d="M147.091 91.7795C147.362 91.8756 147.578 92.0295 147.819 92.1832C148.265 93.6127 147.332 94.8985 146.701 96.1385L146.277 96.0931C146.004 95.1788 146.939 92.9182 147.091 91.7795Z"/><path d="M69.6975 64.5235C69.995 64.469 70.2977 64.4249 70.6011 64.434C71.8485 64.4714 73.2913 65.0616 74.159 65.9501C73.7569 65.9896 73.3683 65.9813 72.9665 65.9408C71.7054 65.8135 70.5384 65.5464 69.6975 64.5235Z"/><path d="M114.137 71.0138C114.568 71.107 114.942 71.3254 115.307 71.5648C116.119 72.0973 116.663 72.7613 116.861 73.7157C116.066 73.4594 115.13 73.1138 114.571 72.4597C114.11 71.9195 114.088 71.6881 114.137 71.0138Z"/><path d="M69.048 55.7352C69.3721 55.7597 69.6999 55.7857 70.0208 55.8377C70.6857 55.9455 71.1692 56.0782 71.5512 56.6238L71.239 57.0329C70.4021 57.0256 69.6398 57.0204 68.8306 56.7706L68.6311 56.3426L69.048 55.7352Z"/><path d="M113.995 56.2341C114.44 56.3341 114.905 56.4661 115.331 56.6297C116.199 56.9634 116.531 57.2958 116.909 58.0972C116.24 58.0424 115.417 57.9551 114.83 57.6025C114.232 57.2431 114.134 56.8674 113.995 56.2341Z"/><path d="M99.4443 74.3012C99.8195 74.4032 100.211 74.5093 100.564 74.6727C101.186 74.9603 101.569 75.3381 101.797 75.9813C101.468 75.9679 101.133 75.9541 100.807 75.9085C100.084 75.8074 99.7453 75.572 99.3238 75.0017L99.4443 74.3012Z"/><path d="M118.759 89.2319C119.206 89.2321 119.647 89.3344 120.049 89.531C120.755 89.8721 121.119 90.3308 121.354 91.0625C120.871 91.0447 120.414 91.0073 119.971 90.7926C119.293 90.4633 118.991 89.9164 118.759 89.2319Z"/><path d="M57.8394 69.3453C60.6579 69.1971 64.0414 70.0204 66.7873 70.7245C68.2835 71.1082 72.6343 72.3443 73.3898 73.6181L72.9446 73.804C70.0025 72.9543 67.1378 71.9027 64.1583 71.1602C61.9846 70.6186 59.3659 70.4177 57.3172 69.6416L57.8394 69.3453Z"/><path d="M84.5233 78.4758C86.7115 78.8014 91.5506 81.8282 92.9721 83.5708C92.9341 83.5664 92.8959 83.5632 92.8581 83.5575C90.9639 83.2736 85.6664 79.9608 84.5233 78.4758Z"/><path d="M215.205 95.0886C218.445 94.7859 221.985 95.117 225.194 95.6185C233.106 96.855 244.642 105.086 249.329 111.584C253.732 117.687 258.756 126.807 257.462 134.516C254.9 149.771 237.466 144.868 227.008 144.145C224.505 143.972 221.832 144.089 219.352 144.476C210.021 145.935 201.166 151.399 193.631 156.809C189.393 159.507 184.869 163.94 179.771 164.652C175.049 165.311 169.718 164.542 165.865 161.59C160.894 157.781 158.051 150.974 157.252 144.919C156.932 142.499 157.154 140.065 157.38 137.648C157.575 135.553 157.672 133.292 158.19 131.254C159.123 127.579 162.109 123.277 164.437 120.268C168.244 115.346 172.912 111.797 178.084 108.446C181.279 106.375 184.551 104.205 187.973 102.523C195.844 98.6562 206.527 96.1759 215.205 95.0886ZM192.911 155.261C201.35 149.822 207.865 144.923 218.036 142.936C220.913 142.374 224.366 142.35 227.284 142.589C235.673 143.275 252.973 147.666 255.567 135.635C257.077 128.636 252.902 120.008 249.116 114.249C244.849 107.757 234.116 98.9414 226.3 97.3696C222.966 96.6989 219.128 96.5097 215.72 96.5514C206.578 98.0943 197.06 99.6617 188.637 103.775C185.126 105.489 181.94 107.647 178.679 109.777C173.052 113.452 168.386 117.237 164.463 122.755C159.592 129.605 157.82 136.947 159.244 145.275C160.175 150.719 162.498 157.398 167.2 160.731C170.507 163.075 174.632 163.541 178.553 162.853C183.453 161.994 189.246 158.612 192.911 155.261Z"/><path d="M189.936 105.053C190.215 104.915 190.393 104.968 190.681 105.028C190.544 105.813 186.082 107.771 185.171 108.4C181.376 111.02 171.928 118.862 168.921 122.204C167.609 123.663 166.556 125.272 165.616 126.99C162.02 133.56 159.347 145.244 164.093 151.829C165.421 153.672 168.848 156.834 169.374 158.854C169.387 158.903 169.398 158.952 169.41 159.001C168.961 158.892 168.511 158.77 168.106 158.542C165.372 157.001 161.837 151.102 160.943 148.055C158.992 141.404 160.979 132.927 164.243 126.945C165.247 125.104 166.361 123.215 167.77 121.651C170.336 118.802 173.751 116.465 176.699 114.009C179.47 111.701 182.096 109.055 185.144 107.113C186.661 106.146 188.218 105.555 189.936 105.053Z"/><path d="M208.756 141.277L208.944 141.626C208.676 142.023 203.124 144.434 202.175 144.976C194.684 149.249 187.696 156.46 179.13 158.491C177.998 158.76 176.651 159.214 175.589 158.564L175.529 158.17C176.425 157.592 177.927 157.532 178.977 157.399C180.587 157.196 183.531 155.867 184.519 154.592L184.224 154.418L183.046 154.836C181.612 155.167 180.191 155.602 178.733 155.815C176.177 156.188 173.176 156.13 171.017 154.524L171.124 154.292C174.523 153.792 177.024 155.215 181.305 154.209C185.049 153.329 190.212 151.03 193.564 149.083C198.582 146.168 202.98 142.689 208.756 141.277Z"/><path d="M184.19 111.912C184.407 112.172 184.669 112.295 184.467 112.637C183.754 113.848 179.225 117.408 177.894 118.66C176.064 120.392 174.314 122.206 172.648 124.096C167.705 129.803 164.417 136.076 164.77 143.812C164.877 146.143 165.506 148.58 165.349 150.892L164.776 151.37C164.66 151.255 164.555 151.14 164.454 151.011C162.975 149.121 163.117 142.133 163.422 139.747C164.893 128.25 175.528 118.649 184.19 111.912Z"/><path d="M216.274 141.349C216.89 141.242 217.311 141.246 217.918 141.4L217.907 141.687C214.529 143.341 209.877 143.544 206.002 145.463C197.806 149.522 189.244 157.691 181.351 160.715C179.623 161.377 177.719 161.66 175.904 162.002C175.254 162.022 174.715 162.013 174.083 161.844L173.913 161.516C174.45 161.062 182.05 159.266 183.944 158.313C185.779 157.389 187.58 156.038 189.299 154.9C197.838 149.251 205.704 142.52 216.274 141.349Z"/><path d="M213.779 98.7997C222.393 98.2505 227.398 98.469 235.135 102.731C236.666 103.574 238.372 104.391 239.75 105.457C240.855 106.31 243.636 108.424 243.82 109.859L243.467 110.164L242.8 109.903C239.276 106.469 235.271 103.434 230.615 101.719C228.443 100.93 226.185 100.399 223.889 100.138C221.813 99.9053 212.966 100.427 211.868 99.5193C212.413 98.9762 213.043 98.9615 213.779 98.7997Z"/><path d="M215.841 101.326C222.533 101.01 229.996 101.733 235.766 105.352C236.765 105.979 239.284 107.549 239.512 108.762C239.546 108.943 239.276 109.194 239.164 109.342C230.023 100.558 217.294 103.172 215.574 101.726L215.841 101.326Z"/><path d="M223.238 107.577C225.417 107.436 228.217 108.3 230.225 109.078C230.925 109.349 232.338 109.826 232.639 110.509L232.202 110.655L232.204 110.443C231.689 110.659 231.319 110.359 230.816 110.153C229.61 109.804 228.384 109.453 227.146 109.234C225.904 109.014 221.42 109.013 220.745 108.222C221.438 107.674 222.39 107.672 223.238 107.577Z"/><path d="M253.715 136.171C253.913 136.306 253.949 136.509 254.02 136.725C253.935 137.243 253.775 137.624 253.455 138.046C251.452 140.696 248.771 141.795 245.591 142.267L245.337 141.751C246.099 141.057 247.752 141.128 248.791 140.508C250.598 139.43 252.18 137.617 253.715 136.171Z"/><path d="M205.636 99.5475C206.085 99.4385 206.156 99.4374 206.592 99.5866L206.463 99.9765C204.613 101.59 200.642 102.125 198.302 102.747C198.064 102.894 197.914 102.906 197.635 102.938L197.493 102.738L197.665 102.384C200.036 100.947 202.968 100.227 205.636 99.5475Z"/><path d="M192.558 114.322C192.73 114.341 192.9 114.375 193.056 114.451C193.864 114.845 194.641 116.007 194.919 116.843L194.476 117.564C193.985 117.558 193.316 117.522 192.854 117.345C192.201 117.093 191.997 116.748 191.728 116.149C191.735 115.337 192.069 114.939 192.558 114.322Z"/><path d="M188.863 143.896C189.067 143.917 189.281 143.946 189.471 144.029C189.973 144.25 190.33 144.758 190.494 145.266C190.705 145.92 190.501 146.622 190.17 147.199C189.698 148.022 189.071 148.077 188.22 148.313C187.849 148.143 187.574 147.933 187.26 147.675C187.353 147.132 188.599 146.886 189.124 146.504C189.42 145.714 188.813 144.888 188.853 144.031C188.855 143.986 188.86 143.941 188.863 143.896Z"/><path d="M205.934 132.556C206.572 132.438 207.293 132.381 207.858 132.692C206.971 133.76 204.626 133.974 203.323 134.196C202.652 134.366 202.33 134.513 201.651 134.335L201.801 134.008C203.122 133.214 204.443 132.897 205.934 132.556Z"/><path d="M191.83 125.869L192.63 126.236C192.894 126.664 193.075 126.865 193.021 127.4C192.935 128.26 192.253 128.831 191.628 129.341C191.433 129.247 191.228 129.153 191.048 129.033C190.504 128.667 190.479 128.522 190.337 127.909C190.543 127.079 191.257 126.471 191.83 125.869Z"/><path d="M205.588 117.118L205.848 117.151L206.04 117.488C205.273 118.422 202.736 118.595 201.525 118.81C201.28 118.708 201.276 118.631 201.132 118.418C202.014 117.392 204.326 117.302 205.588 117.118Z"/><path d="M185.822 140.198L186.206 140.28L186.405 140.589C185.856 141.622 183.873 142.223 182.833 142.637L182.138 142.469L182.123 142.115C183.083 141.242 184.633 140.73 185.822 140.198Z"/><path d="M243.595 132.883C244.167 132.914 244.432 132.866 244.908 133.2L244.832 133.547C243.995 134.158 243.168 134.053 242.188 134.015C241.762 134.043 241.371 133.912 240.963 133.804L240.879 133.446C241.69 132.893 242.65 132.931 243.595 132.883Z"/><path d="M181.83 128.675L182.116 129.079L181.992 129.742C181.411 130.638 180.406 131.184 179.533 131.766C179.438 131.575 179.45 131.337 179.432 131.125C179.985 130.118 180.969 129.411 181.83 128.675Z"/><path d="M177.385 151.552C177.726 151.47 178.106 151.461 178.455 151.424L178.675 151.641C178.103 152.321 177.382 152.529 176.573 152.815C176.139 152.856 175.724 152.786 175.294 152.73L175.106 152.416C175.783 151.796 176.517 151.706 177.385 151.552Z"/><path d="M223.236 104.549C224.153 104.558 224.95 104.608 225.843 104.839L225.884 105.239C225.108 105.298 223.809 105.585 223.166 105.099L223.236 104.549Z"/><path d="M342.108 54.875C349.111 54.2665 358.695 56.4671 365.183 59.3136C375.039 63.6383 388.608 74.4005 392.573 84.6795C394.651 90.0678 396.397 97.4742 393.914 102.942C392.904 105.222 391.012 106.996 388.672 107.857C378.212 111.774 354.361 97.0176 344.444 92.5796C338.244 89.8048 326.53 86.0213 319.791 86.8273C317.261 87.13 314.803 88.2374 312.44 89.1431C305.179 91.4307 297.323 93.8888 290.989 98.1968C285.698 101.795 278.619 108.05 273.054 110.569C269.577 112.143 266.82 112.011 263.306 110.681C262.49 109.545 261.772 108.344 261.158 107.088C259.253 103.148 260.985 99.2925 262.294 95.4806C265.628 93.2163 267.941 89.8784 271.431 87.6451C275.062 85.3212 279.671 84.527 283.063 81.8841C286.492 79.2129 289.209 75.5789 292.618 72.8081C296.181 69.9115 300.076 67.5596 304.068 65.308C308.009 63.0855 311.958 60.9191 316.222 59.37C324.177 56.4802 333.707 55.6109 342.108 54.875ZM382.961 106.612C383.307 106.687 383.654 106.75 384.004 106.801C386.189 107.124 387.967 106.317 389.674 105.054C392.649 102.83 393.123 99.7398 393.8 96.3256C392.34 93.9578 392.06 91.2938 390.848 88.8424C386.429 79.9038 379.677 73.1086 371.438 67.6714C367.75 65.2375 363.818 63.1361 359.633 61.6999C357.676 61.0282 355.224 60.5801 353.412 59.6558C353 59.4461 352.781 59.2107 352.688 58.7613C354.468 58.1427 362.6 61.4968 364.538 62.4376C372.731 66.4163 380.957 72.4087 386.429 79.7424C388.451 82.4516 389.857 85.6525 392.113 88.1766C390.106 80.0765 383.954 74.2426 377.83 69.0462C375.353 66.9445 372.895 64.8511 370.1 63.1718C364.003 59.5084 353.939 56.5427 346.914 56.1245C340.237 55.7269 329.177 57.287 322.664 58.9516C320.501 59.5046 318.428 60.5063 316.357 61.3312C306.806 65.1345 298.64 69.8147 290.829 76.5305C289.409 77.7512 287.354 79.2654 286.442 80.8933C286.322 81.1066 286.238 81.3264 286.172 81.5616L286.425 81.7987C289.365 81.0354 291.973 77.4712 294.39 75.6435C298.038 72.8856 308.191 66.1761 312.471 65.1032L312.718 65.2865C312.137 66.2045 309.408 67.2893 308.36 67.9044C304.84 69.9695 291.603 77.7456 290.629 81.014C290.78 81.1081 290.914 81.2532 291.093 81.2078C293.298 80.6482 297.348 77.1903 299.457 75.8635C301.608 74.5099 312.278 68.7692 314.004 69.4924C313.399 70.2651 311.13 70.8672 310.143 71.3457C307.818 72.4728 295.095 78.6599 294.62 80.9123C295.349 81.2335 296.588 80.6658 297.303 80.3883C300.33 79.2145 302.565 77.3873 305.836 76.7293C305.1 77.9767 301.523 78.8737 300.262 80.1448C300.598 80.5001 300.854 80.4227 301.322 80.4343C305.072 80.5278 308.737 78.9139 312.304 77.959C314.02 77.4996 315.793 77.2206 317.498 76.7374C318.693 76.3987 319.851 75.7985 321.07 75.5655C321.629 75.4586 322.144 75.3867 322.673 75.6442C322.495 76.0452 322.458 76.0781 322.047 76.2413C319.13 77.3979 310.517 78.4726 308.835 80.6308C310.763 81.3907 317.008 78.2834 318.115 79.1975C317.529 79.9452 314.088 80.9504 312.918 81.6053C316.368 81.4109 319.918 81.3331 323.344 81.8264C330.488 82.8548 342 87.2537 348.329 90.7114C351.882 92.6526 355.111 95.0928 358.609 97.0845C364.572 100.481 376.258 105.397 382.961 106.612ZM388.547 104.222C388.093 105.098 387.746 105.696 386.767 106.001C385.688 106.338 384.18 106.06 383.086 105.88C381.257 105.412 379.452 104.856 377.675 104.217C375.326 103.379 363.829 99.4773 363.014 97.7566C363.508 97.5359 364.193 97.8394 364.706 98.0151C371.009 100.174 377.128 103.718 383.859 104.523C385.518 104.721 386.92 104.587 388.547 104.222ZM342.237 89.0544C340.012 87.7043 326.351 82.8949 324.233 83.3655L324.147 83.6458C325.831 84.525 328.109 84.8806 329.934 85.4634C333.605 86.6327 337.242 87.9059 340.841 89.2814C343.231 89.7731 345.479 91.2373 347.88 91.9065C346.093 90.7042 344.265 89.782 342.237 89.0544ZM296.493 82.1099C285.793 82.6931 273.218 86.243 265.888 94.4543C264.21 96.334 261.934 99.5624 262.011 102.203C262.015 102.341 262.048 102.442 262.112 102.563C262.747 101.315 263.044 99.7087 263.805 98.5815C266.663 94.3439 275.079 88.3673 279.978 86.7947C280.473 86.6355 280.892 86.5718 281.4 86.7114L281.674 87.0173C280.76 88.1475 277.694 89.0362 276.255 89.8117C270.493 92.9183 262.399 99.383 263.269 106.776C263.402 107.903 263.871 108.915 264.787 109.616C266.175 110.677 268.113 110.67 269.767 110.405C271.079 110.194 272.495 109.349 273.619 108.658C275.681 107.39 286.456 99.7626 287.504 98.3384C286.827 98.1057 285.52 98.7803 284.847 99.1057C284.079 99.4768 283.482 99.9815 282.855 100.552C278.916 103.814 273.72 108.554 268.735 109.699C267.183 108.075 265.972 107.6 266.03 105.093C266.126 100.898 267.77 97.4167 270.823 94.5405C271.55 93.8551 272.19 93.4302 273.205 93.4166L273.518 93.6252C272.949 94.5315 271.92 95.1418 271.189 95.9279C268.55 98.767 266.596 102.579 267.502 106.535C267.644 107.153 267.754 107.703 268.258 108.13C269.099 108.43 269.831 108.151 270.608 107.788C274.329 106.049 277.762 102.855 281.024 100.361C287.159 95.67 293.494 91.3673 300.629 88.3471C301.549 87.9578 303.574 86.8909 304.531 87.2436C304.814 87.3481 305.516 87.8298 305.749 87.8396C307.152 87.8984 311.335 85.8304 313.079 85.4316C315.225 84.9407 317.515 85.3609 319.671 84.8065L319.961 84.5258C315.985 82.1537 301.32 81.6448 296.493 82.1099ZM294.019 93.1403C292.663 94.0554 289.448 95.9177 289.101 97.4966C289.303 97.5918 289.385 97.6664 289.613 97.6494C290.431 97.0678 290.923 96.3892 291.652 95.7572C292.519 95.0042 293.536 94.3707 294.461 93.6836L294.494 93.3269L294.019 93.1403Z"/><path d="M370.784 69.4763C370.879 69.4868 370.928 69.4897 371.016 69.5076C375.622 70.4436 383.769 80.3354 386.512 84.3317C389.058 88.0419 391.919 91.9604 391.04 96.6766C390.799 96.7127 390.659 96.6224 390.446 96.5245C390.18 95.5324 390.178 94.5226 389.97 93.5229C388.503 86.4486 380.37 78.301 375.244 73.4438C373.833 72.1065 372.398 70.5512 370.784 69.4763Z"/><path d="M324.579 80.3143C328.75 79.9575 345.393 86.3121 348.992 88.6084C349.655 89.0314 349.977 89.2232 350.15 90.0023C348.171 89.7303 345.292 87.5437 343.23 86.7742C339.225 85.2789 335.055 83.9889 330.957 82.7642C329.051 82.1944 326.401 81.8349 324.692 80.8894L324.579 80.3143Z"/><path d="M334.009 58.3979C335.249 58.2987 336.508 58.1388 337.749 58.2695L337.973 58.6114C337.083 59.2174 334.355 59.1705 333.188 59.3738C329.224 60.0646 325.311 61.3198 321.441 62.412C320.775 62.624 320.029 62.9433 319.337 63.0307C318.74 63.1062 318.378 62.9786 317.918 62.6253C318.798 61.6933 331.973 58.5002 334.009 58.3979Z"/><path d="M371.766 84.4611C371.86 84.4708 371.955 84.4825 372.048 84.4991C374.188 84.8797 380.795 88.7675 382.027 90.5389L381.294 90.6104C380.095 90.1289 372.726 86.0303 372.186 85.2739C372.024 85.0478 371.895 84.7118 371.766 84.4611Z"/><path d="M342.55 69.1065C344.74 69.1185 349.453 68.9019 351.107 70.3631L351.073 70.9044C348.524 70.4461 344.902 70.6294 342.601 69.6209L342.55 69.1065Z"/><path d="M355.176 79.4155C355.7 79.4599 355.967 79.5138 356.355 79.8807C356.291 81.0145 355.252 82.0053 354.548 82.8867C354.242 82.7748 353.941 82.5944 353.649 82.448C353.414 82.0389 353.254 81.8926 353.344 81.4088C353.502 80.5538 354.523 79.8753 355.176 79.4155Z"/><path d="M315.093 73.0514C315.299 73.0884 315.42 73.2331 315.58 73.3639C314.793 74.1428 312.173 74.5634 310.986 74.9957L310.529 74.9567L310.359 74.6522C311.006 73.7035 313.941 73.3118 315.093 73.0514Z"/><path d="M341.947 71.2838C343.105 71.2774 344.743 71.2704 345.668 72.0084L345.734 72.7094C344.708 72.7072 343.415 72.7706 342.519 72.2173C342.056 71.9318 342.069 71.8055 341.947 71.2838Z"/><path d="M371.703 88.9573C371.826 88.9634 371.872 88.9622 371.986 88.9789C373.101 89.1433 374.537 89.7917 375.197 90.7255C374.527 90.8257 373.928 90.7314 373.292 90.4973C372.482 90.1995 372.047 89.7273 371.703 88.9573Z"/><path d="M321.465 78.3343C321.7 78.4288 321.738 78.5178 321.895 78.7119C321.31 79.2613 320.163 79.3702 319.393 79.5463C319.099 79.3146 319.082 79.2912 318.974 78.9325C319.572 78.3978 320.692 78.4216 321.465 78.3343Z"/><path d="M383.086 105.88C381.257 105.412 379.452 104.856 377.675 104.217C375.326 103.379 363.829 99.4773 363.014 97.7566C363.508 97.5359 364.193 97.8394 364.706 98.0151C371.009 100.174 377.128 103.718 383.859 104.523C385.518 104.721 386.92 104.587 388.547 104.222C388.093 105.098 387.746 105.696 386.767 106.001C385.688 106.338 384.18 106.06 383.086 105.88Z"/><path d="M340.841 89.2814C337.242 87.9059 333.605 86.6327 329.934 85.4634C328.109 84.8806 325.831 84.525 324.147 83.6458L324.233 83.3655C326.351 82.8949 340.012 87.7043 342.237 89.0544L340.841 89.2814Z"/><path fill="#37373B" fill-opacity="0.019607844" d="M388.547 104.222C389.056 104.467 389.441 104.52 389.674 105.054C387.967 106.317 386.189 107.124 384.004 106.801C383.654 106.75 383.307 106.687 382.961 106.612L383.086 105.88C384.18 106.06 385.688 106.338 386.767 106.001C387.746 105.696 388.093 105.098 388.547 104.222Z"/><path d="M294.019 93.1403L294.494 93.3269L294.461 93.6836C293.536 94.3707 292.519 95.0042 291.652 95.7572C290.923 96.3892 290.431 97.0678 289.613 97.6494C289.385 97.6664 289.303 97.5918 289.101 97.4966C289.448 95.9177 292.663 94.0554 294.019 93.1403Z"/><path d="M342.237 89.0544C344.265 89.782 346.093 90.7042 347.88 91.9065C345.479 91.2373 343.231 89.7731 340.841 89.2814L342.237 89.0544Z"/><path d="M47.72 129.356C51.795 129.151 55.7866 129.223 59.8098 130C65.7616 131.15 78.0422 136.228 83.4085 139.273C85.3395 140.369 87.0698 141.777 88.8718 143.068C96.3666 138.858 105.197 137.83 113.641 138.995C119.829 139.848 128.139 141.314 132.108 146.614C133.224 148.103 133.815 149.881 133.515 151.746C133.161 153.956 131.217 156.814 129.062 157.594C126.73 158.438 123.552 158.251 121.072 158.332C104.937 158.861 91.5842 155.129 77.1466 165.497C75.5191 166.531 74.0239 167.8 72.4469 168.913C69.4722 171.013 66.3527 173.002 63.6484 175.453C59.4086 179.297 55.618 183.631 51.3655 187.485C50.2883 188.461 49.1935 189.649 47.9428 190.392C45.6848 191.733 42.1126 192.713 39.4847 192.901C33.7337 193.311 26.5336 190.22 22.2394 186.507C17.1445 182.102 14.2672 177.34 13.7955 170.585C12.9391 158.32 17.2672 148.306 25.2453 139.186C31.3241 132.237 38.858 129.947 47.72 129.356ZM103.777 155.586C98.8761 153.575 94.9036 149.284 90.1955 146.823C88.1407 147.094 75.4017 150.599 74.5138 150.177L74.6361 149.799C77.7461 148.573 86.0379 147.298 87.8799 145.848L87.9549 145.423C87.5163 145.058 87.3896 145.042 86.8189 144.952C86.7984 144.977 86.7787 145.003 86.7573 145.027C86.7216 145.068 86.6837 145.106 86.6476 145.146C86.3594 145.464 86.0871 145.75 85.6611 145.873C84.4107 146.235 82.876 146.112 81.5638 146.241C79.5405 146.44 77.4879 146.811 75.508 147.282C72.9998 147.878 70.6086 149.074 68.1052 149.57C68.1311 149.534 68.1561 149.498 68.183 149.463C71.1054 145.68 82.274 145.401 86.8189 144.952C85.2031 142.502 80.6709 140.201 77.8794 139.568C73.3688 138.546 62.9158 138.919 58.224 139.629C57.1493 139.792 53.2606 141.051 52.4136 140.724L52.4861 140.492C57.3598 137.114 68.6569 138.018 74.5007 138.092C68.4048 135.423 62.1678 132.008 55.3386 131.974C55.1874 132.168 54.9266 132.617 54.739 132.742C52.4686 134.25 44.4719 134.153 40.9553 135.567C36.245 137.46 31.4347 140.297 27.863 143.911C25.8115 145.988 21.0794 154.058 19.1723 154.855C19.1396 153.458 24.4856 146.132 25.6186 144.688C29.1703 140.162 36.7265 135.369 42.3331 133.878C46.4974 132.771 51.0646 132.49 55.3386 131.974C53.454 130.487 46.7118 131.436 44.2771 131.726C41.9166 132.007 39.6292 132.558 37.3395 133.18C36.1587 133.501 34.8906 133.648 33.7514 134.099C30.916 135.221 28.0602 138.259 26.2148 140.608C23.7149 143.791 20.8174 147.373 18.9048 150.927C15.6677 156.942 14.5947 164.987 15.4347 171.678C16.1936 177.723 19.201 182.3 23.9916 185.983C28.6445 189.561 35.4364 191.834 41.3312 191.032C48.6725 190.034 54.9806 181.122 60.1783 176.384C63.2326 173.6 67.1413 171.183 69.639 167.889C69.7747 167.71 69.9072 167.529 70.0364 167.345C67.6951 169 65.0568 171.249 62.4187 172.363L62.3183 172.183C68.574 164.736 87.4259 154.88 97.0582 154.052C98.4838 153.93 99.8995 154.132 101.307 154.344L101.214 154.384C98.8342 155.387 95.8704 155.416 93.3379 156.02C86.4775 157.656 80.4613 160.516 74.511 164.265C73.3524 164.995 71.9718 165.684 70.9877 166.627L70.9764 167.024C71.9826 167.012 84.2335 159.979 86.9188 158.969C92.3719 156.918 98.0937 156.519 103.777 155.586ZM115.584 154.066C113.586 154.065 111.661 154.216 109.733 154.763L109.71 154.95C111.24 155.097 113.803 155.641 115.157 154.884L115.768 155.275L115.847 155.728L114.914 156.577C115.204 156.754 115.492 156.843 115.821 156.918C118.055 157.422 128.142 155.922 130.047 154.665C131.064 153.994 131.674 152.921 131.884 151.735C132.166 150.14 131.727 148.576 130.809 147.261C127.756 142.882 121.352 141.641 116.412 140.807C109.435 139.63 102.935 139.756 96.0904 141.708C94.661 142.116 92.9071 142.542 91.7035 143.444C91.2124 143.812 90.9469 144.136 90.8684 144.736C90.9816 144.771 91.2893 144.906 91.3902 144.895C91.7264 144.858 95.4963 143.015 96.5298 142.723C100.153 141.7 104.86 140.843 108.614 141.313L108.77 141.612C108.206 142.031 101.033 142.762 99.4079 143.121C96.9309 143.659 94.5333 144.514 92.2743 145.664L92.3399 146.091C92.8773 146.306 93.3652 146.224 93.9161 146.112C95.1647 145.857 96.3738 145.31 97.6172 144.995C102.324 143.804 108.518 142.515 113.39 143.238L113.518 143.494C112.008 144.294 109.248 143.993 107.538 144.182C104.56 144.513 97.064 145.847 94.6752 147.349L94.6809 147.62C97.3576 148.376 105.905 146.339 109.2 146.091C105.584 147.76 100.971 147.466 97.664 149.482L97.6894 149.735C99.6129 150.346 109.928 147.935 113.099 148.448L113.193 148.738C111.786 150.396 102.945 149.184 100.62 151.079C102.595 152.714 115.766 149.378 117.838 151.041C117.011 152.061 109.202 152.081 107.61 152.229C106.172 152.363 104.674 152.614 103.264 152.925L103.171 153.296C105.228 154.768 113.698 151.94 115.66 153.393L115.584 154.066Z"/><path d="M57.3866 173.213L57.5955 173.423C57.5574 174.202 56.718 174.826 56.179 175.38C50.2193 181.503 40.3244 188.888 31.5707 189.027L31.3983 188.649C31.7476 188.175 31.9928 188.021 32.5551 187.826C35.5791 186.777 37.9295 187.032 41.3036 185.324C47.2047 182.338 52.1961 177.256 57.3866 173.213Z"/><path d="M54.7868 134.602C57.7747 134.498 61.0196 134.39 63.9818 134.794C64.7199 134.894 65.3479 134.975 65.8237 135.605C65.7241 135.694 65.6511 135.829 65.5248 135.872C64.9169 136.083 62.7515 135.742 61.958 135.741C58.352 135.756 54.7471 135.874 51.1477 136.094C48.1112 136.368 44.0396 138.143 41.2411 137.897L41.3928 137.665C45.8459 135.533 49.9686 135.139 54.7868 134.602Z"/><path d="M57.5988 176.923L57.8307 177.193C57.8423 178.011 56.3294 179.262 55.7058 179.904C51.0938 184.652 43.9746 190.251 37.0803 190.344L36.908 189.763C37.7553 188.984 39.5215 189.095 40.6458 188.754C42.0494 188.328 43.3728 187.647 44.654 186.943C49.8086 184.112 53.1625 180.534 57.5988 176.923Z"/><path d="M31.6689 146.405L31.9768 146.712C31.9019 148.444 22.8898 156.164 21.1757 158.345C19.5897 160.363 18.566 162.513 17.5378 164.839C17.4187 164.674 17.1623 164.418 17.1575 164.219C17.0321 159.026 27.9885 150.112 31.6689 146.405Z"/><path d="M95.928 152.276C96.4481 152.171 96.8619 152.257 97.3699 152.36L97.4323 152.674C95.4215 154.354 92.1246 153.872 89.7133 154.575C86.3636 155.55 83.0542 157.016 79.7797 158.232C79.2778 158.44 79.1498 158.582 78.6243 158.373L78.291 158.656L78.4153 158.406L78.303 158.403C78.7154 157.816 79.5788 157.468 80.2053 157.123C85.2173 154.358 90.4824 153.651 95.928 152.276Z"/><path d="M69.8108 141.125C72.7365 140.924 78.2315 140.642 80.9569 141.581C79.1458 142.516 72.7086 142.036 70.4377 142.05C66.6479 142.168 62.9589 142.957 59.1835 143.158C62.5766 141.637 66.1482 141.358 69.8108 141.125Z"/><path d="M44.5387 179.713L44.8736 179.933C44.3607 180.847 42.7507 181.684 41.8772 182.275C37.4485 185.27 33.258 187.193 27.8017 186.142L27.3755 185.916L27.3475 185.624C28.4289 184.98 31.2239 185.402 32.5608 185.285C36.7786 184.914 40.9653 181.833 44.5387 179.713Z"/><path d="M77.6964 143.108C79.7138 143.006 81.9814 142.722 83.8975 143.478L83.7282 143.702C81.784 144.122 79.7906 143.999 77.8152 144.103C76.0878 144.193 74.3534 144.455 72.6376 144.673C71.4995 144.928 68.327 145.89 67.3644 145.309C70.7903 143.697 73.9724 143.299 77.6964 143.108Z"/><path d="M91.8218 151.093C92.4745 151.001 92.9553 150.937 93.5925 151.159L93.5755 151.456C92.3806 152.032 90.9371 152.215 89.6463 152.503C86.4443 153.217 82.9411 153.923 80.0351 155.493L79.0746 155.891L78.772 155.722C78.7991 155.688 78.8253 155.653 78.8534 155.619C80.8853 153.187 88.7538 151.324 91.8218 151.093Z"/><path d="M25.4309 157.418L25.8433 157.566C25.7899 158.584 19.7622 166.631 18.7606 168.061L18.4112 167.636C19.0158 164.689 23.3589 159.499 25.4309 157.418Z"/><path d="M52.844 166.173C53.1701 166.24 53.2306 166.308 53.475 166.52C53.4527 166.616 53.448 166.648 53.4087 166.749C52.8643 168.141 49.57 169.656 48.2603 170.309C48.008 170.359 47.8566 170.263 47.6296 170.164L47.6933 169.78C49.2806 168.434 51.1144 167.329 52.844 166.173Z"/><path d="M88.8475 149.327C89.4477 149.276 89.4913 149.256 89.9861 149.59C89.5062 150.181 83.2704 151.272 82.0564 151.538C81.7208 151.649 81.4447 151.616 81.0966 151.585L80.9147 151.256C83.081 150.092 86.4259 149.776 88.8475 149.327Z"/><path d="M27.4365 182.642L27.9623 182.575L28.0728 182.789C28.0281 182.866 28.0186 182.888 27.957 182.964C27.2729 183.815 25.0661 183.883 24.0521 183.991C23.643 183.953 23.4724 183.855 23.152 183.603C24.062 182.626 26.1675 182.722 27.4365 182.642Z"/><path d="M61.0691 160.966L61.54 161.257L61.4743 161.725C60.7868 162.404 59.9644 162.76 59.1038 163.167C58.7063 162.945 58.6746 162.95 58.5212 162.526C59.0915 161.748 60.2164 161.372 61.0691 160.966Z"/><path d="M34.3464 173.222C34.7165 173.314 34.7419 173.356 34.987 173.624C34.5228 174.22 33.3811 174.501 32.6797 174.775L32.1657 174.526L32.2101 174.133C32.8504 173.611 33.5687 173.439 34.3464 173.222Z"/><path d="M19.1723 154.855C19.1396 153.458 24.4856 146.132 25.6186 144.688C29.1703 140.162 36.7265 135.369 42.3331 133.878C46.4974 132.771 51.0646 132.49 55.3386 131.974C55.1874 132.168 54.9266 132.617 54.739 132.742C52.4686 134.25 44.4719 134.153 40.9553 135.567C36.245 137.46 31.4347 140.297 27.863 143.911C25.8115 145.988 21.0794 154.058 19.1723 154.855Z"/><path d="M86.8189 144.952C86.7984 144.977 86.7787 145.003 86.7573 145.027C86.7216 145.068 86.6837 145.106 86.6476 145.146C86.3594 145.464 86.0871 145.75 85.6611 145.873C84.4107 146.235 82.876 146.112 81.5638 146.241C79.5405 146.44 77.4879 146.811 75.508 147.282C72.9998 147.878 70.6086 149.074 68.1052 149.57C68.1311 149.534 68.1561 149.498 68.183 149.463C71.1054 145.68 82.274 145.401 86.8189 144.952Z"/><path fill="#9E969A" fill-opacity="0.027450981" d="M115.157 154.884C113.803 155.641 111.24 155.097 109.71 154.95L109.733 154.763C111.661 154.216 113.586 154.065 115.584 154.066L115.393 154.632L114.432 154.856L115.157 154.884Z"/><path fill="#100F0F" d="M175.286 16.5272C179.046 16.184 182.298 22.3154 185 24.4086C188.439 27.0714 192.579 30.0559 196.286 32.3179C198.232 33.5054 200.307 34.4823 202.267 35.6564C208.376 39.3165 214.543 43.4508 221.498 45.3302C231.298 47.9781 242.37 47.4238 252.068 44.6848C261.269 42.0865 272.02 36.0687 281.705 38.2151C282.392 38.3617 283.063 38.574 283.709 38.8489C285.404 39.5875 286.84 40.8862 287.498 42.6424C288.237 44.615 287.828 46.7778 286.963 48.6363C284.466 54.0005 277.529 57.0971 272.307 59.0311C270.337 59.615 268.455 60.4671 266.471 61.0423C261.701 62.4252 256.756 63.4945 251.926 64.6747C249.161 65.3505 246.037 65.4058 243.403 66.4101C238.927 68.117 235.506 72.0496 230.874 73.6431C228.074 74.606 225.065 75.1761 222.167 75.7531C219.377 76.3087 216.474 76.931 213.619 76.9186C207.765 76.893 201.097 73.7965 195.899 71.2512C191.85 69.2689 181.909 62.0541 179.061 58.5344C177.058 56.0592 175.658 53.1774 174.019 50.4614C172.574 48.0683 170.973 45.6968 170.071 43.0327C167.828 36.4046 167.653 26.5204 170.88 20.109C171.94 18.0037 173.118 17.2451 175.286 16.5272ZM171.49 41.7819C172.678 43.8079 173.589 45.9788 174.808 47.9775L174.687 48.3099L175.203 48.6842C175.212 48.739 175.219 48.794 175.229 48.8487C175.548 50.7157 176.979 53.225 177.917 54.8973L178.148 54.0514L178.245 54.1428C179.055 59.0513 187.766 63.7403 191.423 66.9331L191.582 66.526C190.78 64.2734 180.606 57.7197 178.591 54.1554C179.079 54.175 179.543 54.223 179.972 54.4782C181.409 55.3348 182.605 56.6539 184.002 57.6063C185.352 58.5273 186.851 59.1905 188.23 60.0621C190.3 61.3707 192.242 62.8908 194.279 64.2518C196.379 65.6549 204.722 68.5911 205.641 69.5518C205.681 69.5935 205.718 69.6376 205.756 69.6804C204.694 70.1939 203.238 69.5213 202.211 69.1627C198.754 67.9559 195.564 66.3161 192.523 64.2906C191.151 63.3769 189.833 62.3096 188.388 61.5201C192.401 66.3371 197.815 69.5834 203.813 71.2914C205.105 71.5275 206.882 71.8145 207.881 72.7225L207.872 72.972C206.119 72.9194 204.017 71.9725 202.346 72.2249C202.634 72.8716 203.407 73.2039 204.053 73.4501C207.418 74.7332 217.594 75.0304 221.038 73.5997C223.242 72.8798 225.462 72.4454 227.558 71.3982C225.494 70.9356 222.661 72.566 220.692 73.1613C218.753 73.323 214.519 73.8036 212.865 72.7404L212.947 72.3818C214.279 71.7541 216.976 72.2411 218.579 72.0036C221.584 71.5585 224.668 70.4592 227.61 69.6718C230.165 68.7292 232.455 67.2611 234.982 66.3089C236.922 65.5779 237.028 66.5663 239.265 64.9417C242.515 62.5828 245.43 59.247 248.309 56.4177C251.897 52.8921 255.537 49.6319 259.468 46.4879C260.309 45.8157 263.44 43.739 263.587 42.8112C261.152 41.9358 255.25 47.0769 253.038 48.3271C251.802 49.0255 250.431 49.4551 249.059 49.7917C239.906 52.0364 229.891 51.83 220.945 48.7632C217.779 47.6777 214.81 46.1646 211.767 44.7881C209.626 43.8197 207.36 43.1125 205.248 42.0909C202.799 40.9065 200.464 39.2728 198.136 37.856C193.996 35.2197 189.816 32.482 185.945 29.4616C183.287 27.3876 180.923 25.0201 178.122 23.1159C179.346 25.1637 181.41 26.3238 182.644 28.3171C180.1 27.5898 175.643 22.72 174.268 20.5372L174.391 20.2912C174.973 20.5164 175.333 20.7863 175.942 20.6099C175.994 20.0872 176.02 19.6179 176.278 19.1466L176.729 19.1488C179.689 25.0407 192.82 32.5508 198.109 36.5509C198.842 37.0304 199.232 37.3666 200.127 37.4395L200.275 37.1426C199.148 35.2171 186.537 27.6467 183.665 25.0692C181.904 23.4889 178.364 18.7457 176.341 18.2113C175.678 18.0364 174.986 18.0898 174.393 18.444C172.497 19.5748 171.395 23.4174 170.922 25.4557C169.853 30.073 170.252 36.6923 171.832 41.1263C172.439 41.4217 173.124 41.7299 173.653 42.1516C174.107 42.5142 178.466 46.6177 178.492 46.6888C178.514 46.7485 178.531 46.8098 178.55 46.8704C178.107 47.0322 177.936 47.0397 177.488 46.8436C175.198 45.8414 173.63 43.1707 171.49 41.7819ZM267.905 55.5448C267.146 55.9156 266.492 56.0036 265.655 56.0689C263.967 57.9842 259.005 58.1734 256.577 60.141C259.334 59.4776 266.745 57.9815 268.502 55.9544L268.854 56.205L268.917 56.6867C267.608 58.2598 260.677 60.2966 258.475 61.2644C264.696 61.0988 277.881 55.8502 282.637 51.6879C284.509 50.0491 286.287 47.8797 286.428 45.2898C286.496 44.0411 286.211 42.8358 285.347 41.9018C283.661 40.0782 280.724 39.8097 278.39 39.7128C274.451 39.5494 273.409 40.6321 269.992 41.7679C269.187 42.0354 268.348 41.9127 267.686 42.5218C267.948 42.9594 269.053 43.143 269.575 43.3453L269.836 43.9388C267.861 44.0116 265.682 44.8093 264.032 45.8865L264.107 46.0564C265.761 45.9327 267.297 45.0501 268.927 45.0615C269.691 45.3929 270.616 45.9181 271.45 45.5741C271.685 45.4769 271.877 45.3721 272.077 45.2161C273.331 44.6778 276.386 43.3641 277.677 43.7637C277.737 43.9235 277.872 44.1334 277.795 44.2906C277.138 45.6434 270.687 47.3932 269.005 48.1676C266.989 49.0956 265.183 50.7175 263.214 51.7957C262.946 51.9426 261.715 52.4365 261.618 52.5978C261.563 52.6892 261.646 52.8094 261.66 52.9152C262.293 53.0839 262.694 53.0113 263.317 52.8666L263.481 53.8424C264.987 53.9981 266.632 54.7268 267.905 55.5448ZM257.01 57.0532C257.873 56.689 260.011 56.0412 260.373 55.2471C259.958 54.9617 259.626 54.9492 259.139 54.9353C258.374 55.5417 256.538 56.2554 256.083 56.9768L256.327 57.1612L257.01 57.0532ZM260.64 54.3915C261.272 55.0179 262.416 54.9351 263.256 54.9276C263.362 54.927 263.468 54.9247 263.574 54.9207L263.324 54.0149L261.41 53.9786C260.763 53.5239 260.446 53.2575 259.611 53.4066C258.653 53.5777 257.237 53.7687 256.472 54.3898L256.44 54.7474C258.031 55.1705 259.215 53.27 260.64 54.3915ZM242.94 49.0954C240.727 49.2178 238.55 49.4304 236.352 49.7119L236.148 49.9642L236.444 50.056C238.09 50.0614 241.924 50.2372 243.314 49.3724L243.222 49.087L242.94 49.0954ZM258.604 51.1274C260.149 50.6327 263.943 49.8621 264.828 48.562L264.509 48.2245C262.675 49.5596 260.223 49.503 258.379 50.7383L258.412 51.1367L258.604 51.1274Z"/><path d="M217.995 58.3051C220.589 58.0926 223.25 59.3295 225.841 59.5118C226.826 59.5811 228.61 59.1332 229.425 59.6415L229.2 60.4107C226.963 61.3957 222.901 60.5317 220.606 59.8706C219.527 59.5596 218.568 59.3343 217.995 58.3051Z"/><path d="M208.903 53.5472L209.584 53.8581C209.783 54.7113 209.096 55.0428 209.233 55.8738L209.745 56.0951C210.654 55.782 210.831 55.029 211.591 54.4956C212.161 54.8407 212.206 55.2208 212.462 55.8249C212.367 56.0311 212.272 56.2454 212.148 56.4363C211.772 57.0155 211.327 57.3132 210.648 57.4586C210.074 57.5813 209.339 57.549 208.843 57.2002C208.387 56.8797 208.137 56.4629 208.024 55.9269C207.841 55.0535 208.456 54.2407 208.903 53.5472Z"/><path d="M171.972 34.6614C172.147 34.7312 172.491 34.8151 172.63 34.9237C173.122 35.3094 173.646 36.3639 174.114 36.8766C175.425 38.3131 178.005 40.0572 178.814 41.756C177.522 41.5618 176.118 40.3174 175.174 39.4644C173.879 38.2948 172.069 36.4799 171.972 34.6614Z"/><path d="M172.192 38.8713C172.436 38.9268 173.019 38.98 173.208 39.1023C174.434 39.8951 178.655 43.9024 179.714 45.0461C179.551 45.0489 179.585 45.0526 179.44 45.0412C179.393 45.0375 179.347 45.0322 179.3 45.0285C179.111 45.0133 178.93 44.9949 178.747 44.9395C176.487 44.2529 173.274 40.8653 172.192 38.8713Z"/><path d="M172.183 30.971C173.187 31.5075 177.706 36.5584 178.043 37.5901C176.101 37.1495 173.651 34.2738 172.532 32.7128C172.057 32.0498 172.052 31.7385 172.183 30.971Z"/><path d="M221.465 69.5777C221.843 69.4934 221.918 69.507 222.273 69.6103L222.06 69.9939C219.96 71.3214 217.595 71.1551 215.22 71.0032C214.948 70.9348 214.75 70.7729 214.52 70.6194C215.367 69.9612 219.968 69.9426 221.465 69.5777Z"/><path d="M172.493 29.1673C172.653 29.1847 172.626 29.1777 172.766 29.2062C172.81 29.2153 172.854 29.2258 172.899 29.2352C173.045 29.266 173.06 29.2632 173.209 29.3118C174.733 29.8104 177.895 33.1144 178.577 34.5559C178.51 34.5473 178.443 34.5411 178.377 34.5301C176.439 34.2097 173.548 30.6724 172.493 29.1673Z"/><path d="M173.842 22.8751C175.432 23.299 178.348 26.6483 179.294 28.0779C178.968 28.0581 178.665 28.0026 178.367 27.8615C176.456 26.957 174.554 24.8414 173.842 22.8751Z"/><path d="M230.162 54.8123C231.556 54.7365 234.303 54.2996 235.449 55.0267L235.337 55.647C234.033 55.867 231.872 56.4217 230.671 55.7375C230.287 55.5187 230.285 55.2114 230.162 54.8123Z"/><path d="M186.655 43.7219C186.883 43.7758 187.086 43.8753 187.29 43.9914C188.236 44.5318 190.385 46.1422 190.671 47.1661C189.5 47.0816 188.044 46.3953 187.249 45.5183C186.702 44.916 186.613 44.4945 186.655 43.7219Z"/><path d="M172.321 25.9756L172.426 26.0049C172.741 26.0907 173.048 26.1932 173.328 26.3668C174.37 27.0144 176.612 29.211 176.859 30.3637C176.17 30.1593 175.644 29.7531 175.09 29.3087C174.127 28.5367 172.462 27.2519 172.321 25.9756Z"/><path d="M186.509 36.2577C187.478 36.36 188.623 36.554 189.308 37.3042C189.475 37.4881 189.393 37.8105 189.386 38.0558C188.417 38.1069 187.811 38.0614 186.955 37.5866C186.525 37.03 186.417 36.9916 186.509 36.2577Z"/><path d="M186.917 47.1708C187.306 47.2984 187.639 47.4846 187.989 47.6938C188.928 48.2545 189.425 48.7322 189.684 49.7754C189.036 49.7086 188.512 49.4812 187.993 49.0847C187.34 48.5866 187.043 47.9617 186.917 47.1708Z"/><path d="M270.063 51.8888L270.624 51.9853L270.63 52.3774C269.959 52.7575 269.409 53.1388 268.85 53.6716L268.877 54.4187L268.502 54.6039L267.659 54.1879C267.041 54.0811 266.444 54.028 266.046 53.5308C266.731 52.9861 268.984 52.4866 270.063 51.8888Z"/><path d="M178.591 54.1554C179.079 54.175 179.543 54.223 179.972 54.4782C181.409 55.3348 182.605 56.6539 184.002 57.6063C185.352 58.5273 186.851 59.1905 188.23 60.0621C190.3 61.3707 192.242 62.8908 194.279 64.2518C196.379 65.6549 204.722 68.5911 205.641 69.5518C205.681 69.5935 205.718 69.6376 205.756 69.6804C204.694 70.1939 203.238 69.5213 202.211 69.1627C198.754 67.9559 195.564 66.3161 192.523 64.2906C191.151 63.3769 189.833 62.3096 188.388 61.5201C192.401 66.3371 197.815 69.5834 203.813 71.2914C201.326 71.3518 199.384 70.0966 197.086 69.3493L196.356 70.0289C196.064 70.0874 195.84 70.0511 195.568 69.9337C194.544 69.4923 191.825 67.9157 191.423 66.9331L191.582 66.526C190.78 64.2734 180.606 57.7197 178.591 54.1554Z"/><path d="M178.122 23.1159C179.346 25.1637 181.41 26.3238 182.644 28.3171C180.1 27.5898 175.643 22.72 174.268 20.5372L174.391 20.2912C174.973 20.5164 175.333 20.7863 175.942 20.6099C175.994 20.0872 176.02 19.6179 176.278 19.1466L176.729 19.1488C179.689 25.0407 192.82 32.5508 198.109 36.5509L198.136 37.856C193.996 35.2197 189.816 32.482 185.945 29.4616C183.287 27.3876 180.923 25.0201 178.122 23.1159Z"/><path d="M220.692 73.1613C218.753 73.323 214.519 73.8036 212.865 72.7404L212.947 72.3818C214.279 71.7541 216.976 72.2411 218.579 72.0036C221.584 71.5585 224.668 70.4592 227.61 69.6718C227.618 70.1319 227.733 70.9981 227.558 71.3982C225.494 70.9356 222.661 72.566 220.692 73.1613Z"/><path d="M178.245 54.1428L178.591 54.1554C180.606 57.7197 190.78 64.2734 191.582 66.526L191.423 66.9331C187.766 63.7403 179.055 59.0513 178.245 54.1428Z"/><path d="M174.808 47.9775C177.454 48.3434 182.539 53.3854 184.55 55.3856C180.229 53.4974 178.859 51.1865 175.324 48.7659C176.305 50.4961 177.367 52.2202 178.148 54.0514L177.917 54.8973C176.979 53.225 175.548 50.7157 175.229 48.8487C175.219 48.794 175.212 48.739 175.203 48.6842L174.687 48.3099L174.808 47.9775Z"/><path fill="#100F0F" fill-opacity="0.019607844" d="M267.905 55.5448L268.502 55.9544C266.745 57.9815 259.334 59.4776 256.577 60.141C259.005 58.1734 263.967 57.9842 265.655 56.0689C266.492 56.0036 267.146 55.9156 267.905 55.5448Z"/><path d="M263.317 52.8666C263.507 52.6277 263.681 52.3121 263.969 52.2134C266.38 51.3857 268.285 49.4075 270.88 48.9596C270.14 50.3513 266.274 52.1957 264.86 52.9427C264.338 52.9444 263.835 52.9425 263.317 52.8666Z"/><path d="M269.984 44.0337C271.155 43.7832 272.021 43.3985 273.246 43.531C272.627 43.9578 271.821 44.1691 271.601 44.889L272.077 45.2161C271.877 45.3721 271.685 45.4769 271.45 45.5741C270.616 45.9181 269.691 45.3929 268.927 45.0615C269.373 44.8632 269.675 44.4018 269.984 44.0337Z"/><path d="M263.481 53.8424C264.987 53.9981 266.632 54.7268 267.905 55.5448C267.146 55.9156 266.492 56.0036 265.655 56.0689C265.635 56.043 265.617 56.0154 265.595 55.9912C265.126 55.471 264.275 54.9921 263.574 54.9207L263.324 54.0149L263.481 53.8424Z"/><path d="M269.836 43.9388L269.984 44.0337C269.675 44.4018 269.373 44.8632 268.927 45.0615C267.297 45.0501 265.761 45.9327 264.107 46.0564L264.032 45.8865C265.682 44.8093 267.861 44.0116 269.836 43.9388Z"/><path fill="#100F0F" fill-opacity="0.47058824" d="M264.509 48.2245L264.828 48.562C263.943 49.8621 260.149 50.6327 258.604 51.1274L258.412 51.1367L258.379 50.7383C260.223 49.503 262.675 49.5596 264.509 48.2245Z"/><path fill="#100F0F" fill-opacity="0.86274511" d="M242.94 49.0954L243.222 49.087L243.314 49.3724C241.924 50.2372 238.09 50.0614 236.444 50.056L236.148 49.9642L236.352 49.7119C238.55 49.4304 240.727 49.2178 242.94 49.0954Z"/><path d="M220.692 73.1613C222.661 72.566 225.494 70.9356 227.558 71.3982C225.462 72.4454 223.242 72.8798 221.038 73.5997L220.692 73.1613Z"/><path d="M259.139 54.9353C259.626 54.9492 259.958 54.9617 260.373 55.2471C260.011 56.0412 257.873 56.689 257.01 57.0532L256.327 57.1612L256.083 56.9768C256.538 56.2554 258.374 55.5417 259.139 54.9353Z"/><path d="M260.64 54.3915C259.215 53.27 258.031 55.1705 256.44 54.7474L256.472 54.3898C257.237 53.7687 258.653 53.5777 259.611 53.4066C260.446 53.2575 260.763 53.5239 261.41 53.9786L260.64 54.3915Z"/><path fill="#100F0F" fill-opacity="0.015686275" d="M261.41 53.9786L263.324 54.0149L263.574 54.9207C263.468 54.9247 263.362 54.927 263.256 54.9276C262.416 54.9351 261.272 55.0179 260.64 54.3915L261.41 53.9786Z"/></svg>